<?xml version="1.0" encoding="UTF-8"?> <svg xmlns="http://www.w3.org/2000/svg" viewBox="0 0 832.44 767.85"><defs><style>.a{fill:#004982;}.b{fill:#1d1d1b;}</style></defs><path class="a" d="M657.78,200.07H213.92A225.36,225.36,0,0,0,192,222.56q-4.17,4.92-8,10.07c-33.05,43.69-51.12,99.17-51.12,157.7,0,63.11,21,122.69,59.16,167.76A223.34,223.34,0,0,0,213.3,580q2.64,2.38,5.34,4.65H422V517.52H243.38C222,493,206.81,460.45,201,423.9H393.64V356.75H201c5.52-34.56,19.42-65.49,39-89.53H462.19V584.68h67.15V267.22H657.78Z" transform="translate(-4.72 -4.57)"></path><path class="b" d="M34.13,251.31l41.14,4.26L72,263.87l-8.32-1.2-4.16,10.41,6.87,4.8-3,7.48L30.86,259.51Zm6,8L53.72,269l2.93-7.31Z" transform="translate(-4.72 -4.57)"></path><path class="b" d="M51,216.05l19.81,11.12c3.8,2.13,5.6,2.94,7,3.09,2.12.23,3.82-.73,5-2.86s1.07-4-.3-5.57c-.88-1.11-1.79-1.69-6.31-4.23L56.35,206.49l3.59-6.4L79.44,211c7.64,4.29,9.79,6.19,10.88,9.6,1.05,3.25.47,7-1.75,10.91-2.45,4.37-5.56,7-8.87,7.54s-6.46-.55-13.17-4.32L46.72,223.64Z" transform="translate(-4.72 -4.57)"></path><path class="b" d="M85.45,163.33l6,4.41-4.79,6.54,26.07,19.09-5.18,7.07L81.49,181.35l-4.68,6.4-6-4.4Z" transform="translate(-4.72 -4.57)"></path><path class="b" d="M115.67,133.74c4.77,0,9.76,2.53,15.49,7.84,9.89,9.16,11.64,17.53,5.2,24.49s-14.92,5.84-24.72-3.24q-15.17-14-5.21-24.73A12.73,12.73,0,0,1,115.67,133.74Zm2,22.2c7.4,6.85,10.78,8.19,13.45,5.31s1.08-6.16-6.27-13-10.74-8.07-13.33-5.27S110.39,149.17,117.7,155.94Z" transform="translate(-4.72 -4.57)"></path><path class="b" d="M166,109.08l13.64,16.26-2.84,2.37L173,125a10.65,10.65,0,0,1-4.1,10.14c-6.94,5.82-16.18,3.61-24.12-5.84-5.17-6.17-7.54-12.42-6.7-17.72a13.58,13.58,0,0,1,5.09-8.32c6.4-5.36,12.19-4.85,19.24,1.6l-5.18,6.06c-2-1.87-3.19-2.69-4.43-3.13a4.76,4.76,0,0,0-5,.83c-3.33,2.8-2.17,7.43,3.77,14.51s10.06,8.83,13.66,5.81a4.87,4.87,0,0,0,1.54-5.5,13.17,13.17,0,0,0-2.44-4l-4.56,3.83L155.36,118Z" transform="translate(-4.72 -4.57)"></path><path class="b" d="M179.6,76.69l17.9,26.91,10.68-7.09,4.12,6.2-17.92,11.92-22-33.11Z" transform="translate(-4.72 -4.57)"></path><path class="b" d="M223.8,51l28.28,30.15-8,4.1-5.49-6.36-10,5.13,2,8.13-7.15,3.69L216,55ZM223,61l4,16.18,7-3.6Z" transform="translate(-4.72 -4.57)"></path><path class="b" d="M272,42.51c-2.24-2.84-4.39-3.61-7-2.61-2.28.88-3.36,2.89-2.59,4.89s2.19,2.55,8.3,2.5c4.15,0,5.74.15,7.87.87a10.63,10.63,0,0,1,6.75,6.6c2.73,7.13-.74,13.89-8.59,16.9-6.84,2.63-12.28.94-16.82-5.23l6.36-4.74c2.55,3.49,5,4.48,8.09,3.28,2.83-1.09,4.11-3.43,3.19-5.82-.81-2.11-2.54-2.79-6.91-2.71-5.32.13-6.78,0-9.19-.81A10.76,10.76,0,0,1,255,49.16c-2.61-6.79.37-13.17,7.55-15.92a13.68,13.68,0,0,1,9.24-.55c2.31.71,3.78,1.87,6,4.6Z" transform="translate(-4.72 -4.57)"></path><path class="b" d="M372.67,7.33l1.66,16.5,8-17.46,8.78-.88L382.62,21l13.25,24-9,.9-8.83-17.52-2.78,5.14,1.34,13.41-8.66.87L364,8.2Z" transform="translate(-4.72 -4.57)"></path><path class="b" d="M434.27,4.57l.1,6.86-14.85.23L419.68,22l11.44-.17.11,6.86-11.45.17L420,44.57l-8.7.13-.6-39.77Z" transform="translate(-4.72 -4.57)"></path><path class="b" d="M478.38,8.27l-.61,6.18-19.18,24.7,17.09,1.7-.7,7.06-27.18-2.7.6-6.05,19.31-24.81-15.49-1.54.7-7.07Z" transform="translate(-4.72 -4.57)"></path><path class="b" d="M503.63,34.3l-1.17,6.33-11.67-2.14L492,32.15Z" transform="translate(-4.72 -4.57)"></path><path class="b" d="M551.15,43.41l-5.82,20.41-3.55-1,.15-4.67a10.62,10.62,0,0,1-10.69,2.28c-8.72-2.48-12.07-11.38-8.69-23.24,2.21-7.74,6.07-13.22,10.93-15.49a13.56,13.56,0,0,1,9.74-.44c8,2.29,10.85,7.37,9.45,16.83l-7.92-.9c.4-2.74.44-4.15.12-5.42a4.78,4.78,0,0,0-3.49-3.66c-4.18-1.19-7.36,2.36-9.9,11.25s-1.68,13.29,2.85,14.57a4.86,4.86,0,0,0,5.41-1.8,13.2,13.2,0,0,0,2-4.28L536,46.21l1.88-6.59Z" transform="translate(-4.72 -4.57)"></path><path class="b" d="M585.83,36.49l-8.75,21c-1.67,4-2.26,5.9-2.25,7.27,0,2.13,1.16,3.71,3.42,4.65s4.08.6,5.5-.94c1-1,1.46-2,3.46-6.76l8.75-21,6.76,2.83-8.6,20.64c-3.37,8.08-5,10.44-8.27,11.92s-6.86,1.28-11.05-.47c-4.62-1.93-7.59-4.71-8.51-7.94s-.2-6.48,2.76-13.58l8.74-21Z" transform="translate(-4.72 -4.57)"></path><path class="b" d="M642,64l-3.58,6.54-7.11-3.9L615.8,94.93l-7.69-4.22,15.54-28.33-6.95-3.81L620.28,52Z" transform="translate(-4.72 -4.57)"></path><path class="b" d="M670.19,82.23,657,121.44l-7.38-5,3-7.86-9.25-6.33-6.19,5.65-6.64-4.55,32.33-26.06ZM661,86.29,648.67,97.48l6.49,4.45Z" transform="translate(-4.72 -4.57)"></path><path class="b" d="M698,137.7c-6.45,6.32-14,7.07-20,1.87-7.2-6.26-6.41-15.45,2.11-25.26s17.55-11.93,24.85-5.59c3.73,3.25,5.28,7.2,4.53,11.6-.47,2.91-1.66,5.28-4.36,8.93l-6.43-4.79c2.09-2.77,2.81-4,3.13-5.5a4.75,4.75,0,0,0-1.48-4.85c-3.2-2.77-7.2-.8-13.74,6.72-5.9,6.8-7,10.72-3.82,13.5,2.38,2.07,5.37,1.35,9.47-2.36Z" transform="translate(-4.72 -4.57)"></path><path class="b" d="M736.07,139.84l-11.94,10.72,6.41,7.14L742.48,147l5.82,6.49L718.68,180l-5.82-6.49L725,162.68l-6.41-7.15L706.46,166.4l-5.82-6.48,29.62-26.56Z" transform="translate(-4.72 -4.57)"></path><path class="b" d="M774.87,189.36l-6.1,4.28L764.11,187,737.68,205.6l-5-7.18,26.43-18.58-4.56-6.48,6.09-4.29Z" transform="translate(-4.72 -4.57)"></path><path class="b" d="M796.82,227.33l-6,3.29-7.41-13.55-8.06,4.41,5.78,10.57-6,3.29-5.78-10.57-8.59,4.69L768.15,243l-6.23,3.41-11.59-21.19,34.9-19.09Z" transform="translate(-4.72 -4.57)"></path><path class="b" d="M808.93,254.8l-19.32,18.42,23-9,2.47,6.33L778,285l-2.84-7.28,22.45-21.7-26.83,10.48-2.47-6.33,37-14.47Z" transform="translate(-4.72 -4.57)"></path><path class="b" d="M34.36,363.28c3.55-.74,5.2-2.31,5.47-5.1.23-2.44-1.09-4.3-3.22-4.5s-3.26.82-5.94,6.31c-1.86,3.72-2.71,5.07-4.3,6.65a10.63,10.63,0,0,1-8.92,3.1c-7.6-.73-12.1-6.86-11.29-15.23.7-7.29,4.63-11.41,12.18-12.72l1.41,7.8c-4.26.73-6.23,2.46-6.55,5.78-.29,3,1.24,5.21,3.79,5.46,2.26.21,3.63-1,5.51-5,2.26-4.81,3-6.06,4.83-7.86A10.75,10.75,0,0,1,36,345.11c7.24.7,11.62,6.21,10.89,13.87a13.71,13.71,0,0,1-3.64,8.51c-1.66,1.76-3.36,2.55-6.78,3.3Z" transform="translate(-4.72 -4.57)"></path><path class="b" d="M19.78,416.71c-9-.39-14.76-5.43-15-13.35-.35-9.54,6.9-15.23,19.89-15.7s20.69,4.68,21,14.33c.18,4.95-1.65,8.78-5.38,11.24-2.45,1.64-5,2.39-9.5,2.91l-.88-8c3.44-.37,4.8-.66,6.15-1.48a4.72,4.72,0,0,0,2.52-4.39c-.15-4.23-4.32-5.81-14.27-5.45-9,.33-12.63,2.19-12.48,6.42.12,3.16,2.68,4.85,8.19,5.31Z" transform="translate(-4.72 -4.57)"></path><path class="b" d="M48.87,440.11l-15.79,2.81,1.68,9.45,15.79-2.81,1.52,8.57-39.14,7-1.53-8.57,16-2.84-1.68-9.45-16,2.85L8.2,438.51l39.14-7Z" transform="translate(-4.72 -4.57)"></path><path class="b" d="M64,498.6l-6.53,2.09L52.75,486,44,488.79l3.67,11.47-6.53,2.09-3.67-11.47-9.31,3,4.71,14.7-6.76,2.16-7.36-23,37.87-12.12Z" transform="translate(-4.72 -4.57)"></path><path class="b" d="M73.34,520.68l-36.43,16-3.5-8,36.43-16Z" transform="translate(-4.72 -4.57)"></path><path class="b" d="M88,549.09c2.52,4.38,3.23,6.32,3,8.76-.18,2.79-2.44,5.8-5.69,7.68-3.93,2.26-6.88,2-10.25-.71.86,4.6-.92,8.31-5.11,10.72a11.17,11.17,0,0,1-10.07.78c-2.4-1.17-3.72-2.75-6.4-7.4l-6.78-11.78L81.21,537.3ZM59,564.73c2,3.51,4.42,4.33,7.52,2.55s3.6-4.14,1.52-7.76l-2.14-3.72-9,5.21ZM72.91,555c1.19,2.06,2.19,3.21,3.29,3.68a5,5,0,0,0,4.21-.57c2.79-1.6,3.17-3.82,1.15-7.33l-1.73-3-8.32,4.79Z" transform="translate(-4.72 -4.57)"></path><path class="b" d="M118.88,594.26l-5.47,4.12L104.13,586l-7.34,5.52,7.24,9.63-5.48,4.12-7.24-9.63-7.81,5.88,9.28,12.34-5.67,4.26L72.6,598.87,104.37,575Z" transform="translate(-4.72 -4.57)"></path><path class="b" d="M135.16,612.42l-10.8,24.4,17.82-17.08,4.7,4.9-28.71,27.53-5.4-5.64,12.45-28.63-20.79,19.93-4.71-4.9,28.72-27.53Z" transform="translate(-4.72 -4.57)"></path><path class="b" d="M178.38,651.93,174,657.2l-11.41-9.51-6.64,8,8.8,7.33-4.39,5.27-8.8-7.33-10,12.05-6.69-5.58,25.47-30.55Z" transform="translate(-4.72 -4.57)"></path><path class="b" d="M207,675.54c.75,4.72-.91,10.05-5.21,16.56-7.42,11.25-15.39,14.34-23.31,9.12s-8.19-13.77-.83-24.91q11.37-17.23,23.54-9.17A12.71,12.71,0,0,1,207,675.54Zm-21.56,5.63c-5.55,8.4-6.33,12-3.05,14.13s6.25.05,11.77-8.3,6.21-11.9,3-14S190.91,672.86,185.43,681.17Z" transform="translate(-4.72 -4.57)"></path><path class="b" d="M235.31,687.86l-14.87,28.69,11.38,5.9-3.43,6.61-19.11-9.9,18.31-35.31Z" transform="translate(-4.72 -4.57)"></path><path class="b" d="M268.65,703.21l-15.34,36.72-8-3.36,15.34-36.71Z" transform="translate(-4.72 -4.57)"></path><path class="b" d="M309.12,717.32,307,723.85l-14.71-4.72-2.8,8.74L301,731.56l-2.09,6.53-11.47-3.69-3,9.31,14.71,4.72L297,755.19l-23-7.38L286.13,710Z" transform="translate(-4.72 -4.57)"></path><path class="b" d="M336.11,723.73c5.26,1.1,6.86,1.87,8.8,4,2.25,2.61,3,6.37,2.15,10.63-1,5-3.22,7.49-7.62,9l3.61,18.5-9.34-2-2-16.44-4.26-.9-3.23,15.36-8.52-1.79,8.19-38.93Zm-7.3,16.5,3.73.79c3.27.69,5.44-.93,6.21-4.61a5.71,5.71,0,0,0-.77-4.73c-.62-.8-1.61-1.32-3.48-1.71l-3.39-.71Z" transform="translate(-4.72 -4.57)"></path><path class="b" d="M374.87,730l-2.25,22.61c-.43,4.34-.45,6.31,0,7.61.64,2,2.2,3.21,4.63,3.46s4.08-.62,5-2.51c.67-1.24.83-2.31,1.35-7.47l2.25-22.61,7.29.72L390.87,754c-.86,8.72-1.74,11.45-4.43,13.82s-6.19,3.22-10.7,2.77c-5-.49-8.64-2.3-10.46-5.12s-2.09-6.14-1.33-13.79l2.25-22.61Z" transform="translate(-4.72 -4.57)"></path><path class="b" d="M420.63,732.52l10.51,24.53-.37-24.69,6.8-.1.59,39.77-7.81.12-12.48-28.62.43,28.8-6.79.1-.6-39.77Z" transform="translate(-4.72 -4.57)"></path><path class="b" d="M485.43,746.44l2.46,21.08-3.67.43-1.65-4.37a10.65,10.65,0,0,1-9,6.22c-9,1.05-15.51-5.87-16.95-18.13-.94-8,.52-14.52,4.14-18.48a13.53,13.53,0,0,1,8.81-4.16c8.29-1,12.85,2.64,15.2,11.9l-7.66,2.22a13.65,13.65,0,0,0-2-5,4.81,4.81,0,0,0-4.62-2c-4.33.51-5.9,5-4.82,14.19s3.55,12.91,8.23,12.36a4.87,4.87,0,0,0,4.3-3.74,13.4,13.4,0,0,0,.17-4.7l-5.92.69-.8-6.81Z" transform="translate(-4.72 -4.57)"></path><path class="b" d="M557.32,709.17c5.06-1.8,6.83-2,9.58-1.19,3.28,1,5.92,3.83,7.38,7.93,1.7,4.78,1.16,8.07-1.8,11.65l12.73,13.89-9,3.2-10.26-13-4.1,1.45,5.26,14.78-8.2,2.92-13.34-37.46Zm2.38,17.88,3.6-1.28c3.14-1.12,4.15-3.63,2.89-7.16a5.71,5.71,0,0,0-3.13-3.64c-.95-.36-2.06-.27-3.86.36l-3.26,1.16Z" transform="translate(-4.72 -4.57)"></path><path class="b" d="M607.87,687.34l3,6.17-13.91,6.69,4,8.27,10.86-5.21,3,6.18-10.85,5.21,4.23,8.81L622,716.78l3.07,6.39-21.76,10.45-17.21-35.83Z" transform="translate(-4.72 -4.57)"></path><path class="b" d="M628.91,675.18l20.28,34.21-7.49,4.44-20.28-34.21Z" transform="translate(-4.72 -4.57)"></path><path class="b" d="M663.89,651.46l4,5.58-12.07,8.63,6,8.43,9.31-6.66,4,5.58-9.31,6.66,9.11,12.75-7.07,5.06-23.12-32.34Z" transform="translate(-4.72 -4.57)"></path><path class="b" d="M692.71,626.69l4.54,5.13-11.56,10.23,6.08,6.87,9-8,4.54,5.13-9,8,6.48,7.32,11.56-10.23,4.7,5.32-18.08,16-26.34-29.78Z" transform="translate(-4.72 -4.57)"></path><path class="b" d="M709.6,609.08,734.74,618l-18.38-16.47,4.53-5.06L750.51,623l-5.21,5.81-29.48-10.23,21.45,19.2-4.54,5.07-29.61-26.52Z" transform="translate(-4.72 -4.57)"></path><path class="b" d="M751.11,574.85c-3.45-1.09-5.67-.53-7.26,1.77-1.4,2-1.16,4.28.6,5.51s3.24.87,8.27-2.6c3.44-2.33,4.84-3.1,7-3.7a10.65,10.65,0,0,1,9.3,1.67c6.27,4.36,7.19,11.91,2.39,18.81-4.19,6-9.63,7.68-16.86,5.12l2.6-7.49c4.07,1.46,6.63.91,8.54-1.83,1.73-2.49,1.47-5.15-.63-6.61-1.86-1.3-3.67-.88-7.25,1.64-4.33,3.09-5.61,3.79-8.06,4.49a10.8,10.8,0,0,1-9-1.73c-6-4.16-7.09-11.11-2.7-17.43a13.73,13.73,0,0,1,7.34-5.64c2.31-.72,4.18-.58,7.53.45Z" transform="translate(-4.72 -4.57)"></path><path class="b" d="M765.86,526.57l6.06,3.22-7.25,13.63,8.11,4.31,5.65-10.64,6.06,3.22-5.66,10.63,8.64,4.59,7.24-13.63,6.27,3.32-11.33,21.32-35.12-18.65Z" transform="translate(-4.72 -4.57)"></path><path class="b" d="M776.36,501.23c1.9-5,2.9-6.49,5.28-8.08,2.92-1.83,6.76-2,10.83-.49,4.75,1.79,6.91,4.33,7.73,8.91l18.83-.73-3.37,8.93-16.55-.58-1.54,4.07,14.67,5.55L809.16,527,772,512.89ZM791.54,511l1.35-3.56c1.18-3.13-.08-5.52-3.6-6.85a5.68,5.68,0,0,0-4.79,0c-.89.49-1.55,1.39-2.22,3.18L781.06,507Z" transform="translate(-4.72 -4.57)"></path><path class="b" d="M787.11,467.3,818,468.36l-28-13.12,1.73-7.32,36.64,18.71-2.43,9.48-40.91.13Z" transform="translate(-4.72 -4.57)"></path><path class="b" d="M794.86,424.77l39.46,5-1.08,8.63-39.46-5Z" transform="translate(-4.72 -4.57)"></path><path class="b" d="M822.85,379.49c9,.87,14.45,6.21,14.31,14.14-.16,9.54-7.71,14.84-20.71,14.61S796,402.46,796.2,392.8c.08-4.95,2.12-8.67,6-10.93,2.54-1.51,5.11-2.12,9.65-2.4l.46,8c-3.47.18-4.84.4-6.23,1.15a4.72,4.72,0,0,0-2.75,4.24c-.08,4.24,4,6,14,6.21,9,.15,12.73-1.51,12.8-5.74,0-3.17-2.42-5-7.89-5.74Z" transform="translate(-4.72 -4.57)"></path><path class="b" d="M793.18,339.53l6.82-.78,1.76,15.34,9.12-1-1.37-12,6.82-.78,1.37,12,9.71-1.12-1.75-15.34,7.05-.81,2.75,24-39.52,4.54Z" transform="translate(-4.72 -4.57)"></path></svg> 